<svg width="24" height="24" viewBox="0 0 24 24" fill="none" xmlns="http://www.w3.org/2000/svg">
<path d="M18.7625 8.2312C18.6969 8.09039 18.5557 8.00002 18.4001 8.00002H13.6601L18.3381 0.614016C18.4161 0.490828 18.4209 0.334828 18.3505 0.207234C18.2801 0.0792188 18.1457 0 18.0001 0H11.6001C11.4485 0 11.3101 0.0855937 11.2421 0.221203L5.24213 12.2212C5.18011 12.3448 5.18691 12.492 5.25971 12.61C5.33293 12.728 5.46132 12.8 5.60011 12.8H9.7133L5.2313 23.4448C5.1549 23.6268 5.22291 23.838 5.39129 23.9412C5.45607 23.9808 5.52807 24 5.59969 24C5.71449 24 5.82769 23.9507 5.90611 23.858L18.7061 8.65795C18.8065 8.5388 18.8281 8.37239 18.7625 8.2312Z" fill="#FED409"/>
</svg>
