<svg width="24" height="24" viewBox="0 0 24 24" fill="none" xmlns="http://www.w3.org/2000/svg">
<g clip-path="url(#clip0_32_396)">
<path d="M12.0001 3.05981C11.7649 3.23861 8.53976 5.63809 4.40355 6.4663C3.85828 16.011 11.995 20.9526 12.0001 20.9498C12.0053 20.9526 20.142 16.0111 19.5967 6.46604C15.4603 5.63809 12.0001 3.05981 12.0001 3.05981Z" fill="#01A4FF"/>
<path d="M22.286 4.92844C22.2695 4.63858 22.0591 4.39652 21.7743 4.33927C16.7303 3.32964 12.4238 0.158237 12.3813 0.126575C12.1535 -0.0432128 11.8407 -0.0418472 11.6142 0.130622C11.4444 0.259796 7.39685 3.3046 2.22603 4.33957C1.94113 4.39657 1.73083 4.63889 1.71414 4.9288C1.29981 12.1817 4.7028 17.3993 7.63067 20.4988C8.72941 21.6623 9.76043 22.5224 10.4319 23.0388C10.8172 23.335 11.1283 23.5525 11.3213 23.6828C11.6818 23.9266 11.7855 23.9964 11.9844 24C11.9927 24.0003 12.0009 24.0003 12.0087 24.0003C12.205 24.0003 12.3234 23.9212 12.6356 23.7119C12.8047 23.5984 13.0786 23.4095 13.4197 23.1513C14.0142 22.7026 14.9333 21.9556 15.9374 20.9446C17.824 19.0455 19.326 16.9308 20.4009 14.6597C21.8463 11.6068 22.4806 8.33275 22.286 4.92844ZM16.6986 18.1767C14.7618 20.6055 12.7601 22.085 12.0001 22.6017C11.2404 22.085 9.23867 20.6058 7.30106 18.1755C4.27016 14.3739 2.81288 10.1071 2.96592 5.48601C7.33166 4.50005 10.8631 2.21942 12.0035 1.42217C13.1592 2.21825 16.7515 4.51386 21.0343 5.48565C21.1874 10.1073 19.7302 14.3748 16.6986 18.1767Z" fill="#01A4FF"/>
</g>
<defs>
<clipPath id="clip0_32_396">
<rect width="24" height="24" fill="white"/>
</clipPath>
</defs>
</svg>
